<mxfile host="app.diagrams.net" modified="2024-05-16T03:12:55.166Z" agent="Mozilla/5.0 (Windows NT 10.0; Win64; x64) AppleWebKit/537.36 (KHTML, like Gecko) Chrome/124.0.0.0 Safari/537.36 Edg/124.0.0.0" etag="yImhVUnXgPov3ij8DHg1" version="24.4.0" type="github">
  <diagram id="6a731a19-8d31-9384-78a2-239565b7b9f0" name="Page-1">
    <mxGraphModel dx="5410" dy="3251" grid="0" gridSize="10" guides="1" tooltips="1" connect="1" arrows="1" fold="1" page="1" pageScale="1" pageWidth="1654" pageHeight="1169" background="#000000" math="0" shadow="0">
      <root>
        <mxCell id="0" />
        <mxCell id="1" parent="0" />
        <mxCell id="1749" value="一级路由&lt;span style=&quot;background-color: initial;&quot;&gt;Router1&lt;/span&gt;&lt;div&gt;&lt;span style=&quot;background-color: initial;&quot;&gt;0x0007&lt;/span&gt;&lt;/div&gt;" style="rounded=1;whiteSpace=wrap;html=1;shadow=0;labelBackgroundColor=none;strokeColor=none;strokeWidth=3;fillColor=#FF33FF;fontFamily=Helvetica;fontSize=16;fontColor=#FFFFFF;align=center;fontStyle=1;spacing=5;arcSize=7;perimeterSpacing=2;" parent="1" vertex="1">
          <mxGeometry x="-62.5" y="436.5" width="197" height="70" as="geometry" />
        </mxCell>
        <mxCell id="1750" value="" style="edgeStyle=none;rounded=1;jumpStyle=none;html=1;shadow=0;labelBackgroundColor=none;startArrow=classic;startFill=1;jettySize=auto;orthogonalLoop=1;strokeColor=#004C99;strokeWidth=3;fontFamily=Helvetica;fontSize=14;fontColor=#FFFFFF;spacing=5;fontStyle=1;fillColor=#b0e3e6;" parent="1" source="1753" target="1756" edge="1">
          <mxGeometry relative="1" as="geometry" />
        </mxCell>
        <mxCell id="1752" value="" style="edgeStyle=none;rounded=1;jumpStyle=none;html=1;shadow=0;labelBackgroundColor=none;startArrow=classic;startFill=1;jettySize=auto;orthogonalLoop=1;strokeColor=#004C99;strokeWidth=3;fontFamily=Helvetica;fontSize=14;fontColor=#FFFFFF;spacing=5;fontStyle=1;fillColor=#b0e3e6;" parent="1" source="1753" target="fNavXlTei2wndbR-Wmgy-1851" edge="1">
          <mxGeometry relative="1" as="geometry">
            <mxPoint x="-893.4563662374821" y="790" as="targetPoint" />
          </mxGeometry>
        </mxCell>
        <mxCell id="1753" value="&lt;h1&gt;服务器&lt;/h1&gt;&lt;h1&gt;0x0001&lt;/h1&gt;" style="rounded=1;whiteSpace=wrap;html=1;shadow=0;labelBackgroundColor=none;strokeColor=none;strokeWidth=3;fillColor=#383800;fontFamily=Helvetica;fontSize=14;fontColor=#FFFFFF;align=center;spacing=5;fontStyle=1;arcSize=7;perimeterSpacing=2;horizontal=1;" parent="1" vertex="1">
          <mxGeometry x="-964" y="431.25" width="150" height="94.5" as="geometry" />
        </mxCell>
        <mxCell id="1756" value="&lt;h3&gt;&lt;font color=&quot;#ffffff&quot;&gt;服务器客户端&lt;/font&gt;&lt;/h3&gt;&lt;h3&gt;&lt;font color=&quot;#ffffff&quot;&gt;0X0002&lt;/font&gt;&lt;/h3&gt;" style="rounded=1;whiteSpace=wrap;html=1;shadow=0;labelBackgroundColor=none;strokeWidth=3;fontFamily=Helvetica;fontSize=14;align=center;spacing=5;fontStyle=0;arcSize=7;perimeterSpacing=2;fillColor=#004C99;strokeColor=#6c8ebf;" parent="1" vertex="1">
          <mxGeometry x="-964" y="133" width="150" height="69" as="geometry" />
        </mxCell>
        <mxCell id="1770" value="" style="edgeStyle=none;rounded=0;jumpStyle=none;html=1;shadow=0;labelBackgroundColor=none;startArrow=classic;startFill=1;endArrow=classic;endFill=1;jettySize=auto;orthogonalLoop=1;strokeColor=#004C99;strokeWidth=3;fontFamily=Helvetica;fontSize=14;fontColor=#FFFFFF;spacing=5;" parent="1" source="1749" target="fNavXlTei2wndbR-Wmgy-1852" edge="1">
          <mxGeometry relative="1" as="geometry">
            <mxPoint x="-35.11111111111086" y="254.4999999999999" as="sourcePoint" />
            <mxPoint x="36" y="188" as="targetPoint" />
          </mxGeometry>
        </mxCell>
        <mxCell id="fNavXlTei2wndbR-Wmgy-1784" value="" style="endArrow=classic;startArrow=classic;html=1;rounded=0;strokeColor=#FF33FF;strokeWidth=3;" parent="1" source="1753" target="1749" edge="1">
          <mxGeometry width="50" height="50" relative="1" as="geometry">
            <mxPoint x="58" y="533" as="sourcePoint" />
            <mxPoint x="108" y="483" as="targetPoint" />
            <Array as="points" />
          </mxGeometry>
        </mxCell>
        <mxCell id="fNavXlTei2wndbR-Wmgy-1788" value="" style="edgeStyle=none;rounded=0;jumpStyle=none;html=1;shadow=0;labelBackgroundColor=none;startArrow=classic;startFill=1;endArrow=classic;endFill=1;jettySize=auto;orthogonalLoop=1;strokeColor=#004C99;strokeWidth=3;fontFamily=Helvetica;fontSize=14;fontColor=#FFFFFF;spacing=5;" parent="1" source="1749" target="fNavXlTei2wndbR-Wmgy-1853" edge="1">
          <mxGeometry relative="1" as="geometry">
            <mxPoint x="188" y="470" as="sourcePoint" />
            <mxPoint x="231.88906497622838" y="188" as="targetPoint" />
          </mxGeometry>
        </mxCell>
        <mxCell id="fNavXlTei2wndbR-Wmgy-1791" value="二级路由&lt;span style=&quot;background-color: initial;&quot;&gt;Router2&lt;/span&gt;&lt;div&gt;&lt;span style=&quot;background-color: initial;&quot;&gt;0x0010&lt;/span&gt;&lt;/div&gt;" style="rounded=1;whiteSpace=wrap;html=1;shadow=0;labelBackgroundColor=none;strokeColor=none;strokeWidth=3;fillColor=#FF6666;fontFamily=Helvetica;fontSize=16;fontColor=#FFFFFF;align=center;fontStyle=1;spacing=5;arcSize=7;perimeterSpacing=2;" parent="1" vertex="1">
          <mxGeometry x="785" y="430" width="206" height="70" as="geometry" />
        </mxCell>
        <mxCell id="fNavXlTei2wndbR-Wmgy-1793" value="" style="edgeStyle=none;rounded=0;jumpStyle=none;html=1;shadow=0;labelBackgroundColor=none;startArrow=classic;startFill=1;endArrow=classic;endFill=1;jettySize=auto;orthogonalLoop=1;strokeColor=#004C99;strokeWidth=3;fontFamily=Helvetica;fontSize=14;fontColor=#FFFFFF;spacing=5;" parent="1" source="fNavXlTei2wndbR-Wmgy-1791" target="fNavXlTei2wndbR-Wmgy-1866" edge="1">
          <mxGeometry relative="1" as="geometry">
            <mxPoint x="788.8888888888891" y="253.9999999999999" as="sourcePoint" />
            <mxPoint x="860" y="187.5" as="targetPoint" />
          </mxGeometry>
        </mxCell>
        <mxCell id="fNavXlTei2wndbR-Wmgy-1797" value="" style="edgeStyle=none;rounded=0;jumpStyle=none;html=1;shadow=0;labelBackgroundColor=none;startArrow=classic;startFill=1;endArrow=classic;endFill=1;jettySize=auto;orthogonalLoop=1;strokeColor=#004C99;strokeWidth=3;fontFamily=Helvetica;fontSize=14;fontColor=#FFFFFF;spacing=5;" parent="1" source="fNavXlTei2wndbR-Wmgy-1791" target="fNavXlTei2wndbR-Wmgy-1867" edge="1">
          <mxGeometry relative="1" as="geometry">
            <mxPoint x="1012" y="469.5" as="sourcePoint" />
            <mxPoint x="1055.8890649762284" y="187.5" as="targetPoint" />
          </mxGeometry>
        </mxCell>
        <mxCell id="fNavXlTei2wndbR-Wmgy-1800" value="" style="endArrow=classic;startArrow=classic;html=1;rounded=0;strokeColor=#FF6666;strokeWidth=3;" parent="1" source="1749" target="fNavXlTei2wndbR-Wmgy-1791" edge="1">
          <mxGeometry width="50" height="50" relative="1" as="geometry">
            <mxPoint x="213" y="474" as="sourcePoint" />
            <mxPoint x="448" y="474" as="targetPoint" />
            <Array as="points" />
          </mxGeometry>
        </mxCell>
        <mxCell id="fNavXlTei2wndbR-Wmgy-1835" value="" style="group;strokeWidth=3;" parent="1" vertex="1" connectable="0">
          <mxGeometry x="-819" y="659" width="183" height="42" as="geometry" />
        </mxCell>
        <mxCell id="fNavXlTei2wndbR-Wmgy-1826" value="&lt;h3 style=&quot;font-size: 14px;&quot;&gt;目的地址&lt;/h3&gt;" style="rounded=0;whiteSpace=wrap;html=1;fillColor=#6666FF;strokeColor=#6c8ebf;fontSize=14;" parent="fNavXlTei2wndbR-Wmgy-1835" vertex="1">
          <mxGeometry width="91.5" height="21" as="geometry" />
        </mxCell>
        <mxCell id="fNavXlTei2wndbR-Wmgy-1827" value="&lt;h3&gt;原地址&lt;/h3&gt;" style="rounded=0;whiteSpace=wrap;html=1;fillColor=#00FF00;strokeColor=#b85450;" parent="fNavXlTei2wndbR-Wmgy-1835" vertex="1">
          <mxGeometry x="91.5" width="91.5" height="21" as="geometry" />
        </mxCell>
        <mxCell id="fNavXlTei2wndbR-Wmgy-1833" value="&lt;h3 style=&quot;font-size: 14px;&quot;&gt;0x0002&lt;/h3&gt;" style="rounded=0;whiteSpace=wrap;html=1;fillColor=#6666FF;strokeColor=#6c8ebf;fontSize=14;" parent="fNavXlTei2wndbR-Wmgy-1835" vertex="1">
          <mxGeometry y="21" width="91.5" height="21" as="geometry" />
        </mxCell>
        <mxCell id="fNavXlTei2wndbR-Wmgy-1834" value="&lt;h3&gt;0x0001&lt;/h3&gt;" style="rounded=0;whiteSpace=wrap;html=1;fillColor=#00FF00;strokeColor=#b85450;" parent="fNavXlTei2wndbR-Wmgy-1835" vertex="1">
          <mxGeometry x="91.5" y="21" width="91.5" height="21" as="geometry" />
        </mxCell>
        <mxCell id="fNavXlTei2wndbR-Wmgy-1851" value="&lt;h3&gt;&lt;font color=&quot;#ffffff&quot;&gt;服务器客户端&lt;/font&gt;&lt;/h3&gt;&lt;h3&gt;&lt;font color=&quot;#ffffff&quot;&gt;0X0003&lt;/font&gt;&lt;/h3&gt;" style="rounded=1;whiteSpace=wrap;html=1;shadow=0;labelBackgroundColor=none;strokeWidth=3;fontFamily=Helvetica;fontSize=14;align=center;spacing=5;fontStyle=0;arcSize=7;perimeterSpacing=2;fillColor=#004C99;strokeColor=#6c8ebf;" parent="1" vertex="1">
          <mxGeometry x="-969" y="792" width="150" height="69" as="geometry" />
        </mxCell>
        <mxCell id="fNavXlTei2wndbR-Wmgy-1852" value="&lt;h3&gt;&lt;font color=&quot;#ffffff&quot;&gt;一级客户端&lt;/font&gt;&lt;/h3&gt;&lt;h3&gt;&lt;font color=&quot;#ffffff&quot;&gt;0X0008&lt;/font&gt;&lt;/h3&gt;" style="rounded=1;whiteSpace=wrap;html=1;shadow=0;labelBackgroundColor=none;strokeWidth=3;fontFamily=Helvetica;fontSize=14;align=center;spacing=5;fontStyle=0;arcSize=7;perimeterSpacing=2;fillColor=#004C99;strokeColor=#6c8ebf;" parent="1" vertex="1">
          <mxGeometry x="-39" y="291" width="150" height="69" as="geometry" />
        </mxCell>
        <mxCell id="fNavXlTei2wndbR-Wmgy-1853" value="&lt;h3&gt;&lt;font color=&quot;#ffffff&quot;&gt;一级客户端&lt;/font&gt;&lt;/h3&gt;&lt;h3&gt;&lt;font color=&quot;#ffffff&quot;&gt;0X0009&lt;/font&gt;&lt;/h3&gt;" style="rounded=1;whiteSpace=wrap;html=1;shadow=0;labelBackgroundColor=none;strokeWidth=3;fontFamily=Helvetica;fontSize=14;align=center;spacing=5;fontStyle=0;arcSize=7;perimeterSpacing=2;fillColor=#004C99;strokeColor=#6c8ebf;" parent="1" vertex="1">
          <mxGeometry x="-39" y="590" width="150" height="69" as="geometry" />
        </mxCell>
        <mxCell id="fNavXlTei2wndbR-Wmgy-1854" value="一级路由&lt;span style=&quot;background-color: initial;&quot;&gt;Router1&lt;/span&gt;&lt;div&gt;&lt;span style=&quot;background-color: initial;&quot;&gt;0x000A&lt;/span&gt;&lt;/div&gt;" style="rounded=1;whiteSpace=wrap;html=1;shadow=0;labelBackgroundColor=none;strokeColor=none;strokeWidth=3;fillColor=#FF33FF;fontFamily=Helvetica;fontSize=16;fontColor=#FFFFFF;align=center;fontStyle=1;spacing=5;arcSize=7;perimeterSpacing=2;" parent="1" vertex="1">
          <mxGeometry x="-56.5" y="764.5" width="197" height="70" as="geometry" />
        </mxCell>
        <mxCell id="fNavXlTei2wndbR-Wmgy-1855" value="" style="edgeStyle=none;rounded=0;jumpStyle=none;html=1;shadow=0;labelBackgroundColor=none;startArrow=classic;startFill=1;endArrow=classic;endFill=1;jettySize=auto;orthogonalLoop=1;strokeColor=#004C99;strokeWidth=3;fontFamily=Helvetica;fontSize=14;fontColor=#FFFFFF;spacing=5;" parent="1" source="fNavXlTei2wndbR-Wmgy-1854" target="fNavXlTei2wndbR-Wmgy-1858" edge="1">
          <mxGeometry relative="1" as="geometry">
            <mxPoint x="-29.11111111111086" y="582.4999999999999" as="sourcePoint" />
            <mxPoint x="42" y="516" as="targetPoint" />
          </mxGeometry>
        </mxCell>
        <mxCell id="fNavXlTei2wndbR-Wmgy-1856" value="" style="endArrow=classic;startArrow=classic;html=1;rounded=0;strokeColor=#FF33FF;strokeWidth=3;" parent="1" source="1753" target="fNavXlTei2wndbR-Wmgy-1854" edge="1">
          <mxGeometry width="50" height="50" relative="1" as="geometry">
            <mxPoint x="-511" y="800" as="sourcePoint" />
            <mxPoint x="114" y="811" as="targetPoint" />
            <Array as="points" />
          </mxGeometry>
        </mxCell>
        <mxCell id="fNavXlTei2wndbR-Wmgy-1857" value="" style="edgeStyle=none;rounded=0;jumpStyle=none;html=1;shadow=0;labelBackgroundColor=none;startArrow=classic;startFill=1;endArrow=classic;endFill=1;jettySize=auto;orthogonalLoop=1;strokeColor=#004C99;strokeWidth=3;fontFamily=Helvetica;fontSize=14;fontColor=#FFFFFF;spacing=5;" parent="1" source="fNavXlTei2wndbR-Wmgy-1854" target="fNavXlTei2wndbR-Wmgy-1859" edge="1">
          <mxGeometry relative="1" as="geometry">
            <mxPoint x="194" y="798" as="sourcePoint" />
            <mxPoint x="237.88906497622838" y="516" as="targetPoint" />
          </mxGeometry>
        </mxCell>
        <mxCell id="fNavXlTei2wndbR-Wmgy-1858" value="&lt;h3&gt;&lt;font color=&quot;#ffffff&quot;&gt;一级客户端&lt;/font&gt;&lt;/h3&gt;&lt;h3&gt;&lt;font color=&quot;#ffffff&quot;&gt;0X000B&lt;/font&gt;&lt;/h3&gt;" style="rounded=1;whiteSpace=wrap;html=1;shadow=0;labelBackgroundColor=none;strokeWidth=3;fontFamily=Helvetica;fontSize=14;align=center;spacing=5;fontStyle=0;arcSize=7;perimeterSpacing=2;fillColor=#004C99;strokeColor=#6c8ebf;" parent="1" vertex="1">
          <mxGeometry x="102" y="900" width="150" height="69" as="geometry" />
        </mxCell>
        <mxCell id="fNavXlTei2wndbR-Wmgy-1859" value="&lt;h3&gt;&lt;font color=&quot;#ffffff&quot;&gt;一级客户端&lt;/font&gt;&lt;/h3&gt;&lt;h3&gt;&lt;font color=&quot;#ffffff&quot;&gt;0X000C&lt;/font&gt;&lt;/h3&gt;" style="rounded=1;whiteSpace=wrap;html=1;shadow=0;labelBackgroundColor=none;strokeWidth=3;fontFamily=Helvetica;fontSize=14;align=center;spacing=5;fontStyle=0;arcSize=7;perimeterSpacing=2;fillColor=#004C99;strokeColor=#6c8ebf;" parent="1" vertex="1">
          <mxGeometry x="-107" y="900" width="151" height="69" as="geometry" />
        </mxCell>
        <mxCell id="fNavXlTei2wndbR-Wmgy-1860" value="一级路由&lt;span style=&quot;background-color: initial;&quot;&gt;Router1&lt;/span&gt;&lt;div&gt;&lt;span style=&quot;background-color: initial;&quot;&gt;0x0006&lt;/span&gt;&lt;/div&gt;" style="rounded=1;whiteSpace=wrap;html=1;shadow=0;labelBackgroundColor=none;strokeColor=none;strokeWidth=3;fillColor=#FF33FF;fontFamily=Helvetica;fontSize=16;fontColor=#FFFFFF;align=center;fontStyle=1;spacing=5;arcSize=7;perimeterSpacing=2;" parent="1" vertex="1">
          <mxGeometry x="-56.5" y="114.5" width="197" height="70" as="geometry" />
        </mxCell>
        <mxCell id="fNavXlTei2wndbR-Wmgy-1861" value="" style="edgeStyle=none;rounded=0;jumpStyle=none;html=1;shadow=0;labelBackgroundColor=none;startArrow=classic;startFill=1;endArrow=classic;endFill=1;jettySize=auto;orthogonalLoop=1;strokeColor=#004C99;strokeWidth=3;fontFamily=Helvetica;fontSize=14;fontColor=#FFFFFF;spacing=5;" parent="1" source="fNavXlTei2wndbR-Wmgy-1860" target="fNavXlTei2wndbR-Wmgy-1864" edge="1">
          <mxGeometry relative="1" as="geometry">
            <mxPoint x="-29.11111111111086" y="-67.50000000000011" as="sourcePoint" />
            <mxPoint x="42" y="-134" as="targetPoint" />
          </mxGeometry>
        </mxCell>
        <mxCell id="fNavXlTei2wndbR-Wmgy-1862" value="" style="endArrow=classic;startArrow=classic;html=1;rounded=0;strokeColor=#FF33FF;strokeWidth=3;" parent="1" source="1753" target="fNavXlTei2wndbR-Wmgy-1860" edge="1">
          <mxGeometry width="50" height="50" relative="1" as="geometry">
            <mxPoint x="-511" y="150" as="sourcePoint" />
            <mxPoint x="114" y="161" as="targetPoint" />
            <Array as="points" />
          </mxGeometry>
        </mxCell>
        <mxCell id="fNavXlTei2wndbR-Wmgy-1863" value="" style="edgeStyle=none;rounded=0;jumpStyle=none;html=1;shadow=0;labelBackgroundColor=none;startArrow=classic;startFill=1;endArrow=classic;endFill=1;jettySize=auto;orthogonalLoop=1;strokeColor=#004C99;strokeWidth=3;fontFamily=Helvetica;fontSize=14;fontColor=#FFFFFF;spacing=5;" parent="1" source="fNavXlTei2wndbR-Wmgy-1860" target="fNavXlTei2wndbR-Wmgy-1865" edge="1">
          <mxGeometry relative="1" as="geometry">
            <mxPoint x="194" y="148" as="sourcePoint" />
            <mxPoint x="237.88906497622838" y="-134" as="targetPoint" />
          </mxGeometry>
        </mxCell>
        <mxCell id="fNavXlTei2wndbR-Wmgy-1864" value="&lt;h3&gt;&lt;font color=&quot;#ffffff&quot;&gt;一级客户端&lt;/font&gt;&lt;/h3&gt;&lt;h3&gt;&lt;font color=&quot;#ffffff&quot;&gt;0X0004&lt;/font&gt;&lt;/h3&gt;" style="rounded=1;whiteSpace=wrap;html=1;shadow=0;labelBackgroundColor=none;strokeWidth=3;fontFamily=Helvetica;fontSize=14;align=center;spacing=5;fontStyle=0;arcSize=7;perimeterSpacing=2;fillColor=#004C99;strokeColor=#6c8ebf;" parent="1" vertex="1">
          <mxGeometry x="-107" y="-40" width="150" height="69" as="geometry" />
        </mxCell>
        <mxCell id="fNavXlTei2wndbR-Wmgy-1865" value="&lt;h3&gt;&lt;font color=&quot;#ffffff&quot;&gt;一级客户端&lt;/font&gt;&lt;/h3&gt;&lt;h3&gt;&lt;font color=&quot;#ffffff&quot;&gt;0X0005&lt;/font&gt;&lt;/h3&gt;" style="rounded=1;whiteSpace=wrap;html=1;shadow=0;labelBackgroundColor=none;strokeWidth=3;fontFamily=Helvetica;fontSize=14;align=center;spacing=5;fontStyle=0;arcSize=7;perimeterSpacing=2;fillColor=#004C99;strokeColor=#6c8ebf;" parent="1" vertex="1">
          <mxGeometry x="102" y="-40" width="150" height="69" as="geometry" />
        </mxCell>
        <mxCell id="fNavXlTei2wndbR-Wmgy-1866" value="&lt;h3&gt;&lt;font color=&quot;#ffffff&quot;&gt;二级客户端&lt;/font&gt;&lt;/h3&gt;&lt;h3&gt;&lt;font color=&quot;#ffffff&quot;&gt;0X0011&lt;/font&gt;&lt;/h3&gt;" style="rounded=1;whiteSpace=wrap;html=1;shadow=0;labelBackgroundColor=none;strokeWidth=3;fontFamily=Helvetica;fontSize=14;align=center;spacing=5;fontStyle=0;arcSize=7;perimeterSpacing=2;fillColor=#004C99;strokeColor=#6c8ebf;" parent="1" vertex="1">
          <mxGeometry x="1064" y="356.5" width="150" height="69" as="geometry" />
        </mxCell>
        <mxCell id="fNavXlTei2wndbR-Wmgy-1867" value="&lt;h3&gt;&lt;font color=&quot;#ffffff&quot;&gt;二级客户端&lt;/font&gt;&lt;/h3&gt;&lt;h3&gt;&lt;font color=&quot;#ffffff&quot;&gt;0X0012&lt;/font&gt;&lt;/h3&gt;" style="rounded=1;whiteSpace=wrap;html=1;shadow=0;labelBackgroundColor=none;strokeWidth=3;fontFamily=Helvetica;fontSize=14;align=center;spacing=5;fontStyle=0;arcSize=7;perimeterSpacing=2;fillColor=#004C99;strokeColor=#6c8ebf;" parent="1" vertex="1">
          <mxGeometry x="1064" y="522.5" width="150" height="69" as="geometry" />
        </mxCell>
        <mxCell id="fNavXlTei2wndbR-Wmgy-1932" value="" style="endArrow=none;dashed=1;html=1;dashPattern=1 3;strokeWidth=2;rounded=0;strokeColor=#B3B3B3;" parent="1" source="fNavXlTei2wndbR-Wmgy-1898" target="1753" edge="1">
          <mxGeometry width="50" height="50" relative="1" as="geometry">
            <mxPoint x="-992" y="319" as="sourcePoint" />
            <mxPoint x="-942" y="269" as="targetPoint" />
          </mxGeometry>
        </mxCell>
        <mxCell id="fNavXlTei2wndbR-Wmgy-1957" value="" style="endArrow=none;dashed=1;html=1;dashPattern=1 3;strokeWidth=2;rounded=0;strokeColor=#B3B3B3;" parent="1" source="fNavXlTei2wndbR-Wmgy-1997" target="1749" edge="1">
          <mxGeometry width="50" height="50" relative="1" as="geometry">
            <mxPoint x="-150" y="368.13714285714263" as="sourcePoint" />
            <mxPoint x="-79" y="393" as="targetPoint" />
          </mxGeometry>
        </mxCell>
        <mxCell id="fNavXlTei2wndbR-Wmgy-1959" value="二级路由&lt;span style=&quot;background-color: initial;&quot;&gt;Router2&lt;/span&gt;&lt;div&gt;&lt;span style=&quot;background-color: initial;&quot;&gt;0x000D&lt;/span&gt;&lt;/div&gt;" style="rounded=1;whiteSpace=wrap;html=1;shadow=0;labelBackgroundColor=none;strokeColor=none;strokeWidth=3;fillColor=#FF6666;fontFamily=Helvetica;fontSize=16;fontColor=#FFFFFF;align=center;fontStyle=1;spacing=5;arcSize=7;perimeterSpacing=2;" parent="1" vertex="1">
          <mxGeometry x="798" y="116" width="206" height="70" as="geometry" />
        </mxCell>
        <mxCell id="fNavXlTei2wndbR-Wmgy-1960" value="" style="edgeStyle=none;rounded=0;jumpStyle=none;html=1;shadow=0;labelBackgroundColor=none;startArrow=classic;startFill=1;endArrow=classic;endFill=1;jettySize=auto;orthogonalLoop=1;strokeColor=#004C99;strokeWidth=3;fontFamily=Helvetica;fontSize=14;fontColor=#FFFFFF;spacing=5;" parent="1" source="fNavXlTei2wndbR-Wmgy-1959" target="fNavXlTei2wndbR-Wmgy-1963" edge="1">
          <mxGeometry relative="1" as="geometry">
            <mxPoint x="787.8888888888891" y="-85.00000000000011" as="sourcePoint" />
            <mxPoint x="859" y="-151.5" as="targetPoint" />
          </mxGeometry>
        </mxCell>
        <mxCell id="fNavXlTei2wndbR-Wmgy-1961" value="" style="edgeStyle=none;rounded=0;jumpStyle=none;html=1;shadow=0;labelBackgroundColor=none;startArrow=classic;startFill=1;endArrow=classic;endFill=1;jettySize=auto;orthogonalLoop=1;strokeColor=#004C99;strokeWidth=3;fontFamily=Helvetica;fontSize=14;fontColor=#FFFFFF;spacing=5;" parent="1" source="fNavXlTei2wndbR-Wmgy-1959" target="fNavXlTei2wndbR-Wmgy-1964" edge="1">
          <mxGeometry relative="1" as="geometry">
            <mxPoint x="1011" y="130.5" as="sourcePoint" />
            <mxPoint x="1054.8890649762284" y="-151.5" as="targetPoint" />
          </mxGeometry>
        </mxCell>
        <mxCell id="fNavXlTei2wndbR-Wmgy-1962" value="" style="endArrow=classic;startArrow=classic;html=1;rounded=0;strokeColor=#FF6666;strokeWidth=3;" parent="1" source="1749" target="fNavXlTei2wndbR-Wmgy-1959" edge="1">
          <mxGeometry width="50" height="50" relative="1" as="geometry">
            <mxPoint x="136" y="133" as="sourcePoint" />
            <mxPoint x="447" y="135" as="targetPoint" />
            <Array as="points" />
          </mxGeometry>
        </mxCell>
        <mxCell id="fNavXlTei2wndbR-Wmgy-1963" value="&lt;h3&gt;&lt;font color=&quot;#ffffff&quot;&gt;二级客户端&lt;/font&gt;&lt;/h3&gt;&lt;h3&gt;&lt;font color=&quot;#ffffff&quot;&gt;0X000E&lt;/font&gt;&lt;/h3&gt;" style="rounded=1;whiteSpace=wrap;html=1;shadow=0;labelBackgroundColor=none;strokeWidth=3;fontFamily=Helvetica;fontSize=14;align=center;spacing=5;fontStyle=0;arcSize=7;perimeterSpacing=2;fillColor=#004C99;strokeColor=#6c8ebf;" parent="1" vertex="1">
          <mxGeometry x="1064" y="16" width="150" height="69" as="geometry" />
        </mxCell>
        <mxCell id="fNavXlTei2wndbR-Wmgy-1964" value="&lt;h3&gt;&lt;font color=&quot;#ffffff&quot;&gt;二级客户端&lt;/font&gt;&lt;/h3&gt;&lt;h3&gt;&lt;font color=&quot;#ffffff&quot;&gt;0X000F&lt;/font&gt;&lt;/h3&gt;" style="rounded=1;whiteSpace=wrap;html=1;shadow=0;labelBackgroundColor=none;strokeWidth=3;fontFamily=Helvetica;fontSize=14;align=center;spacing=5;fontStyle=0;arcSize=7;perimeterSpacing=2;fillColor=#004C99;strokeColor=#6c8ebf;" parent="1" vertex="1">
          <mxGeometry x="1064" y="112" width="150" height="69" as="geometry" />
        </mxCell>
        <mxCell id="fNavXlTei2wndbR-Wmgy-1965" value="二级路由&lt;span style=&quot;background-color: initial;&quot;&gt;Router2&lt;/span&gt;&lt;div&gt;&lt;span style=&quot;background-color: initial;&quot;&gt;0x0013&lt;/span&gt;&lt;/div&gt;" style="rounded=1;whiteSpace=wrap;html=1;shadow=0;labelBackgroundColor=none;strokeColor=none;strokeWidth=3;fillColor=#FF6666;fontFamily=Helvetica;fontSize=16;fontColor=#FFFFFF;align=center;fontStyle=1;spacing=5;arcSize=7;perimeterSpacing=2;" parent="1" vertex="1">
          <mxGeometry x="785" y="751.5" width="206" height="70" as="geometry" />
        </mxCell>
        <mxCell id="fNavXlTei2wndbR-Wmgy-1966" value="" style="edgeStyle=none;rounded=0;jumpStyle=none;html=1;shadow=0;labelBackgroundColor=none;startArrow=classic;startFill=1;endArrow=classic;endFill=1;jettySize=auto;orthogonalLoop=1;strokeColor=#004C99;strokeWidth=3;fontFamily=Helvetica;fontSize=14;fontColor=#FFFFFF;spacing=5;" parent="1" source="fNavXlTei2wndbR-Wmgy-1965" target="fNavXlTei2wndbR-Wmgy-1969" edge="1">
          <mxGeometry relative="1" as="geometry">
            <mxPoint x="801.8888888888891" y="577.4999999999999" as="sourcePoint" />
            <mxPoint x="873" y="511" as="targetPoint" />
          </mxGeometry>
        </mxCell>
        <mxCell id="fNavXlTei2wndbR-Wmgy-1967" value="" style="edgeStyle=none;rounded=0;jumpStyle=none;html=1;shadow=0;labelBackgroundColor=none;startArrow=classic;startFill=1;endArrow=classic;endFill=1;jettySize=auto;orthogonalLoop=1;strokeColor=#004C99;strokeWidth=3;fontFamily=Helvetica;fontSize=14;fontColor=#FFFFFF;spacing=5;" parent="1" source="fNavXlTei2wndbR-Wmgy-1965" target="fNavXlTei2wndbR-Wmgy-1970" edge="1">
          <mxGeometry relative="1" as="geometry">
            <mxPoint x="1025" y="793" as="sourcePoint" />
            <mxPoint x="1068.8890649762284" y="511" as="targetPoint" />
          </mxGeometry>
        </mxCell>
        <mxCell id="fNavXlTei2wndbR-Wmgy-1968" value="" style="endArrow=classic;startArrow=classic;html=1;rounded=0;strokeColor=#FF6666;strokeWidth=3;" parent="1" source="1749" target="fNavXlTei2wndbR-Wmgy-1965" edge="1">
          <mxGeometry width="50" height="50" relative="1" as="geometry">
            <mxPoint x="136" y="897.5" as="sourcePoint" />
            <mxPoint x="447" y="899.5" as="targetPoint" />
            <Array as="points" />
          </mxGeometry>
        </mxCell>
        <mxCell id="fNavXlTei2wndbR-Wmgy-1969" value="&lt;h3&gt;&lt;font color=&quot;#ffffff&quot;&gt;二级客户端&lt;/font&gt;&lt;/h3&gt;&lt;h3&gt;&lt;font color=&quot;#ffffff&quot;&gt;0X0014&lt;/font&gt;&lt;/h3&gt;" style="rounded=1;whiteSpace=wrap;html=1;shadow=0;labelBackgroundColor=none;strokeWidth=3;fontFamily=Helvetica;fontSize=14;align=center;spacing=5;fontStyle=0;arcSize=7;perimeterSpacing=2;fillColor=#004C99;strokeColor=#6c8ebf;" parent="1" vertex="1">
          <mxGeometry x="1064" y="751.5" width="150" height="69" as="geometry" />
        </mxCell>
        <mxCell id="fNavXlTei2wndbR-Wmgy-1970" value="&lt;h3&gt;&lt;font color=&quot;#ffffff&quot;&gt;二级客户端&lt;/font&gt;&lt;/h3&gt;&lt;h3&gt;&lt;font color=&quot;#ffffff&quot;&gt;0X0015&lt;/font&gt;&lt;/h3&gt;" style="rounded=1;whiteSpace=wrap;html=1;shadow=0;labelBackgroundColor=none;strokeWidth=3;fontFamily=Helvetica;fontSize=14;align=center;spacing=5;fontStyle=0;arcSize=7;perimeterSpacing=2;fillColor=#004C99;strokeColor=#6c8ebf;" parent="1" vertex="1">
          <mxGeometry x="1064" y="853.5" width="150" height="69" as="geometry" />
        </mxCell>
        <mxCell id="fNavXlTei2wndbR-Wmgy-1993" value="" style="endArrow=none;dashed=1;html=1;dashPattern=1 3;strokeWidth=2;rounded=0;strokeColor=#B3B3B3;" parent="1" source="fNavXlTei2wndbR-Wmgy-2023" target="fNavXlTei2wndbR-Wmgy-1791" edge="1">
          <mxGeometry width="50" height="50" relative="1" as="geometry">
            <mxPoint x="645" y="332.48233215547725" as="sourcePoint" />
            <mxPoint x="764" y="398.5" as="targetPoint" />
          </mxGeometry>
        </mxCell>
        <mxCell id="fNavXlTei2wndbR-Wmgy-1995" value="" style="group" parent="1" vertex="1" connectable="0">
          <mxGeometry x="-1419" y="120" width="328" height="340" as="geometry" />
        </mxCell>
        <mxCell id="fNavXlTei2wndbR-Wmgy-1898" value="" style="whiteSpace=wrap;html=1;fillColor=#666666;" parent="fNavXlTei2wndbR-Wmgy-1995" vertex="1">
          <mxGeometry width="328" height="340" as="geometry" />
        </mxCell>
        <mxCell id="fNavXlTei2wndbR-Wmgy-1838" value="" style="shape=table;startSize=0;container=1;collapsible=0;childLayout=tableLayout;fontSize=16;fillColor=#FF33FF;fontColor=#FFFFFF;strokeWidth=3;" parent="fNavXlTei2wndbR-Wmgy-1995" vertex="1">
          <mxGeometry x="12" y="112.5" width="304" height="145" as="geometry" />
        </mxCell>
        <mxCell id="fNavXlTei2wndbR-Wmgy-1839" value="" style="shape=tableRow;horizontal=0;startSize=0;swimlaneHead=0;swimlaneBody=0;strokeColor=inherit;top=0;left=0;bottom=0;right=0;collapsible=0;dropTarget=0;fillColor=none;points=[[0,0.5],[1,0.5]];portConstraint=eastwest;fontSize=16;" parent="fNavXlTei2wndbR-Wmgy-1838" vertex="1">
          <mxGeometry width="304" height="48" as="geometry" />
        </mxCell>
        <mxCell id="fNavXlTei2wndbR-Wmgy-1840" value="路由：0x0006" style="shape=partialRectangle;html=1;whiteSpace=wrap;connectable=0;strokeColor=inherit;overflow=hidden;fillColor=none;top=0;left=0;bottom=0;right=0;pointerEvents=1;fontSize=16;fontColor=#FFFFFF;" parent="fNavXlTei2wndbR-Wmgy-1839" vertex="1">
          <mxGeometry width="76" height="48" as="geometry">
            <mxRectangle width="76" height="48" as="alternateBounds" />
          </mxGeometry>
        </mxCell>
        <mxCell id="fNavXlTei2wndbR-Wmgy-1841" value="0X0004" style="shape=partialRectangle;html=1;whiteSpace=wrap;connectable=0;strokeColor=default;overflow=hidden;fillColor=#004C99;top=0;left=0;bottom=0;right=0;pointerEvents=1;fontSize=16;fontColor=#FFFFFF;strokeWidth=4;" parent="fNavXlTei2wndbR-Wmgy-1839" vertex="1">
          <mxGeometry x="76" width="76" height="48" as="geometry">
            <mxRectangle width="76" height="48" as="alternateBounds" />
          </mxGeometry>
        </mxCell>
        <mxCell id="fNavXlTei2wndbR-Wmgy-1842" value="0X0005" style="shape=partialRectangle;html=1;whiteSpace=wrap;connectable=0;strokeColor=default;overflow=hidden;fillColor=#004C99;top=0;left=0;bottom=0;right=0;pointerEvents=1;fontSize=16;fontColor=#FFFFFF;strokeWidth=4;" parent="fNavXlTei2wndbR-Wmgy-1839" vertex="1">
          <mxGeometry x="152" width="76" height="48" as="geometry">
            <mxRectangle width="76" height="48" as="alternateBounds" />
          </mxGeometry>
        </mxCell>
        <mxCell id="fNavXlTei2wndbR-Wmgy-1890" value="……" style="shape=partialRectangle;html=1;whiteSpace=wrap;connectable=0;strokeColor=default;overflow=hidden;fillColor=#004C99;top=0;left=0;bottom=0;right=0;pointerEvents=1;fontSize=16;fontColor=#FFFFFF;strokeWidth=4;" parent="fNavXlTei2wndbR-Wmgy-1839" vertex="1">
          <mxGeometry x="228" width="76" height="48" as="geometry">
            <mxRectangle width="76" height="48" as="alternateBounds" />
          </mxGeometry>
        </mxCell>
        <mxCell id="fNavXlTei2wndbR-Wmgy-1843" value="" style="shape=tableRow;horizontal=0;startSize=0;swimlaneHead=0;swimlaneBody=0;strokeColor=inherit;top=0;left=0;bottom=0;right=0;collapsible=0;dropTarget=0;fillColor=none;points=[[0,0.5],[1,0.5]];portConstraint=eastwest;fontSize=16;" parent="fNavXlTei2wndbR-Wmgy-1838" vertex="1">
          <mxGeometry y="48" width="304" height="49" as="geometry" />
        </mxCell>
        <mxCell id="fNavXlTei2wndbR-Wmgy-1844" value="路由：0x0007" style="shape=partialRectangle;html=1;whiteSpace=wrap;connectable=0;strokeColor=inherit;overflow=hidden;fillColor=none;top=0;left=0;bottom=0;right=0;pointerEvents=1;fontSize=16;fontColor=#FFFFFF;" parent="fNavXlTei2wndbR-Wmgy-1843" vertex="1">
          <mxGeometry width="76" height="49" as="geometry">
            <mxRectangle width="76" height="49" as="alternateBounds" />
          </mxGeometry>
        </mxCell>
        <mxCell id="fNavXlTei2wndbR-Wmgy-1845" value="0X0008" style="shape=partialRectangle;whiteSpace=wrap;connectable=0;strokeColor=default;overflow=hidden;fillColor=#004C99;top=0;left=0;bottom=0;right=0;pointerEvents=1;fontSize=16;html=1;fontColor=#FFFFFF;strokeWidth=3;" parent="fNavXlTei2wndbR-Wmgy-1843" vertex="1">
          <mxGeometry x="76" width="76" height="49" as="geometry">
            <mxRectangle width="76" height="49" as="alternateBounds" />
          </mxGeometry>
        </mxCell>
        <mxCell id="fNavXlTei2wndbR-Wmgy-1846" value="0X0009" style="shape=partialRectangle;html=1;whiteSpace=wrap;connectable=0;strokeColor=default;overflow=hidden;fillColor=#004C99;top=0;left=0;bottom=0;right=0;pointerEvents=1;fontSize=16;fontColor=#FFFFFF;strokeWidth=3;" parent="fNavXlTei2wndbR-Wmgy-1843" vertex="1">
          <mxGeometry x="152" width="76" height="49" as="geometry">
            <mxRectangle width="76" height="49" as="alternateBounds" />
          </mxGeometry>
        </mxCell>
        <mxCell id="fNavXlTei2wndbR-Wmgy-1891" value="……" style="shape=partialRectangle;html=1;whiteSpace=wrap;connectable=0;strokeColor=default;overflow=hidden;fillColor=#004C99;top=0;left=0;bottom=0;right=0;pointerEvents=1;fontSize=16;fontColor=#FFFFFF;strokeWidth=3;" parent="fNavXlTei2wndbR-Wmgy-1843" vertex="1">
          <mxGeometry x="228" width="76" height="49" as="geometry">
            <mxRectangle width="76" height="49" as="alternateBounds" />
          </mxGeometry>
        </mxCell>
        <mxCell id="fNavXlTei2wndbR-Wmgy-1847" value="" style="shape=tableRow;horizontal=0;startSize=0;swimlaneHead=0;swimlaneBody=0;strokeColor=inherit;top=0;left=0;bottom=0;right=0;collapsible=0;dropTarget=0;fillColor=none;points=[[0,0.5],[1,0.5]];portConstraint=eastwest;fontSize=16;" parent="fNavXlTei2wndbR-Wmgy-1838" vertex="1">
          <mxGeometry y="97" width="304" height="48" as="geometry" />
        </mxCell>
        <mxCell id="fNavXlTei2wndbR-Wmgy-1848" value="路由：0x000A" style="shape=partialRectangle;html=1;whiteSpace=wrap;connectable=0;strokeColor=inherit;overflow=hidden;fillColor=none;top=0;left=0;bottom=0;right=0;pointerEvents=1;fontSize=16;fontColor=#FFFFFF;" parent="fNavXlTei2wndbR-Wmgy-1847" vertex="1">
          <mxGeometry width="76" height="48" as="geometry">
            <mxRectangle width="76" height="48" as="alternateBounds" />
          </mxGeometry>
        </mxCell>
        <mxCell id="fNavXlTei2wndbR-Wmgy-1849" value="0X000B" style="shape=partialRectangle;html=1;whiteSpace=wrap;connectable=0;strokeColor=default;overflow=hidden;fillColor=#004C99;top=0;left=0;bottom=0;right=0;pointerEvents=1;fontSize=16;fontColor=#FFFFFF;strokeWidth=3;" parent="fNavXlTei2wndbR-Wmgy-1847" vertex="1">
          <mxGeometry x="76" width="76" height="48" as="geometry">
            <mxRectangle width="76" height="48" as="alternateBounds" />
          </mxGeometry>
        </mxCell>
        <mxCell id="fNavXlTei2wndbR-Wmgy-1850" value="0X000C" style="shape=partialRectangle;html=1;whiteSpace=wrap;connectable=0;strokeColor=default;overflow=hidden;fillColor=#004C99;top=0;left=0;bottom=0;right=0;pointerEvents=1;fontSize=16;fontColor=#FFFFFF;strokeWidth=3;" parent="fNavXlTei2wndbR-Wmgy-1847" vertex="1">
          <mxGeometry x="152" width="76" height="48" as="geometry">
            <mxRectangle width="76" height="48" as="alternateBounds" />
          </mxGeometry>
        </mxCell>
        <mxCell id="fNavXlTei2wndbR-Wmgy-1892" value="……" style="shape=partialRectangle;html=1;whiteSpace=wrap;connectable=0;strokeColor=default;overflow=hidden;fillColor=#004C99;top=0;left=0;bottom=0;right=0;pointerEvents=1;fontSize=16;fontColor=#FFFFFF;strokeWidth=3;" parent="fNavXlTei2wndbR-Wmgy-1847" vertex="1">
          <mxGeometry x="228" width="76" height="48" as="geometry">
            <mxRectangle width="76" height="48" as="alternateBounds" />
          </mxGeometry>
        </mxCell>
        <mxCell id="fNavXlTei2wndbR-Wmgy-1917" value="" style="shape=table;startSize=0;container=1;collapsible=0;childLayout=tableLayout;fontSize=16;fontColor=#FFFFFF;fillColor=#004C99;" parent="fNavXlTei2wndbR-Wmgy-1995" vertex="1">
          <mxGeometry x="12" y="13" width="106.75" height="80" as="geometry" />
        </mxCell>
        <mxCell id="fNavXlTei2wndbR-Wmgy-1918" value="" style="shape=tableRow;horizontal=0;startSize=0;swimlaneHead=0;swimlaneBody=0;strokeColor=inherit;top=0;left=0;bottom=0;right=0;collapsible=0;dropTarget=0;fillColor=none;points=[[0,0.5],[1,0.5]];portConstraint=eastwest;fontSize=16;" parent="fNavXlTei2wndbR-Wmgy-1917" vertex="1">
          <mxGeometry width="106.75" height="40" as="geometry" />
        </mxCell>
        <mxCell id="fNavXlTei2wndbR-Wmgy-1919" value="0X0002" style="shape=partialRectangle;html=1;whiteSpace=wrap;connectable=0;strokeColor=inherit;overflow=hidden;fillColor=none;top=0;left=0;bottom=0;right=0;pointerEvents=1;fontSize=16;fontColor=#FFFFFF;" parent="fNavXlTei2wndbR-Wmgy-1918" vertex="1">
          <mxGeometry width="107" height="40" as="geometry">
            <mxRectangle width="107" height="40" as="alternateBounds" />
          </mxGeometry>
        </mxCell>
        <mxCell id="fNavXlTei2wndbR-Wmgy-1922" value="" style="shape=tableRow;horizontal=0;startSize=0;swimlaneHead=0;swimlaneBody=0;strokeColor=inherit;top=0;left=0;bottom=0;right=0;collapsible=0;dropTarget=0;fillColor=none;points=[[0,0.5],[1,0.5]];portConstraint=eastwest;fontSize=16;" parent="fNavXlTei2wndbR-Wmgy-1917" vertex="1">
          <mxGeometry y="40" width="106.75" height="40" as="geometry" />
        </mxCell>
        <mxCell id="fNavXlTei2wndbR-Wmgy-1923" value="0X0003" style="shape=partialRectangle;html=1;whiteSpace=wrap;connectable=0;strokeColor=inherit;overflow=hidden;fillColor=none;top=0;left=0;bottom=0;right=0;pointerEvents=1;fontSize=16;fontColor=#FFFFFF;" parent="fNavXlTei2wndbR-Wmgy-1922" vertex="1">
          <mxGeometry width="107" height="40" as="geometry">
            <mxRectangle width="107" height="40" as="alternateBounds" />
          </mxGeometry>
        </mxCell>
        <mxCell id="fNavXlTei2wndbR-Wmgy-1934" value="当前设备节点表" style="rounded=1;whiteSpace=wrap;html=1;fillColor=#666666;fontSize=16;" parent="fNavXlTei2wndbR-Wmgy-1995" vertex="1">
          <mxGeometry x="87.5" y="273" width="153" height="60" as="geometry" />
        </mxCell>
        <mxCell id="fNavXlTei2wndbR-Wmgy-2058" value="&lt;font style=&quot;font-size: 18px;&quot;&gt;类型：服务器&lt;/font&gt;" style="ellipse;whiteSpace=wrap;html=1;fillColor=#FFFF99;" parent="fNavXlTei2wndbR-Wmgy-1995" vertex="1">
          <mxGeometry x="146" y="5.5" width="153" height="95" as="geometry" />
        </mxCell>
        <mxCell id="fNavXlTei2wndbR-Wmgy-1996" value="" style="group" parent="1" vertex="1" connectable="0">
          <mxGeometry x="-521" y="90" width="328" height="340" as="geometry" />
        </mxCell>
        <mxCell id="fNavXlTei2wndbR-Wmgy-1997" value="" style="whiteSpace=wrap;html=1;fillColor=#666666;" parent="fNavXlTei2wndbR-Wmgy-1996" vertex="1">
          <mxGeometry width="328" height="340" as="geometry" />
        </mxCell>
        <mxCell id="fNavXlTei2wndbR-Wmgy-1998" value="" style="shape=table;startSize=0;container=1;collapsible=0;childLayout=tableLayout;fontSize=16;fillColor=#FF33FF;fontColor=#FFFFFF;strokeWidth=3;" parent="fNavXlTei2wndbR-Wmgy-1996" vertex="1">
          <mxGeometry x="12" y="112.5" width="304" height="145" as="geometry" />
        </mxCell>
        <mxCell id="fNavXlTei2wndbR-Wmgy-1999" value="" style="shape=tableRow;horizontal=0;startSize=0;swimlaneHead=0;swimlaneBody=0;strokeColor=inherit;top=0;left=0;bottom=0;right=0;collapsible=0;dropTarget=0;fillColor=none;points=[[0,0.5],[1,0.5]];portConstraint=eastwest;fontSize=16;" parent="fNavXlTei2wndbR-Wmgy-1998" vertex="1">
          <mxGeometry width="304" height="48" as="geometry" />
        </mxCell>
        <mxCell id="fNavXlTei2wndbR-Wmgy-2000" value="路由：0x000D" style="shape=partialRectangle;html=1;whiteSpace=wrap;connectable=0;strokeColor=inherit;overflow=hidden;fillColor=#FF6666;top=0;left=0;bottom=0;right=0;pointerEvents=1;fontSize=16;fontColor=#FFFFFF;" parent="fNavXlTei2wndbR-Wmgy-1999" vertex="1">
          <mxGeometry width="76" height="48" as="geometry">
            <mxRectangle width="76" height="48" as="alternateBounds" />
          </mxGeometry>
        </mxCell>
        <mxCell id="fNavXlTei2wndbR-Wmgy-2001" value="0X000E" style="shape=partialRectangle;html=1;whiteSpace=wrap;connectable=0;strokeColor=default;overflow=hidden;fillColor=#004C99;top=0;left=0;bottom=0;right=0;pointerEvents=1;fontSize=16;fontColor=#FFFFFF;strokeWidth=4;" parent="fNavXlTei2wndbR-Wmgy-1999" vertex="1">
          <mxGeometry x="76" width="76" height="48" as="geometry">
            <mxRectangle width="76" height="48" as="alternateBounds" />
          </mxGeometry>
        </mxCell>
        <mxCell id="fNavXlTei2wndbR-Wmgy-2002" value="0X000F" style="shape=partialRectangle;html=1;whiteSpace=wrap;connectable=0;strokeColor=default;overflow=hidden;fillColor=#004C99;top=0;left=0;bottom=0;right=0;pointerEvents=1;fontSize=16;fontColor=#FFFFFF;strokeWidth=4;" parent="fNavXlTei2wndbR-Wmgy-1999" vertex="1">
          <mxGeometry x="152" width="76" height="48" as="geometry">
            <mxRectangle width="76" height="48" as="alternateBounds" />
          </mxGeometry>
        </mxCell>
        <mxCell id="fNavXlTei2wndbR-Wmgy-2003" value="……" style="shape=partialRectangle;html=1;whiteSpace=wrap;connectable=0;strokeColor=default;overflow=hidden;fillColor=#004C99;top=0;left=0;bottom=0;right=0;pointerEvents=1;fontSize=16;fontColor=#FFFFFF;strokeWidth=4;" parent="fNavXlTei2wndbR-Wmgy-1999" vertex="1">
          <mxGeometry x="228" width="76" height="48" as="geometry">
            <mxRectangle width="76" height="48" as="alternateBounds" />
          </mxGeometry>
        </mxCell>
        <mxCell id="fNavXlTei2wndbR-Wmgy-2004" value="" style="shape=tableRow;horizontal=0;startSize=0;swimlaneHead=0;swimlaneBody=0;strokeColor=inherit;top=0;left=0;bottom=0;right=0;collapsible=0;dropTarget=0;fillColor=none;points=[[0,0.5],[1,0.5]];portConstraint=eastwest;fontSize=16;" parent="fNavXlTei2wndbR-Wmgy-1998" vertex="1">
          <mxGeometry y="48" width="304" height="49" as="geometry" />
        </mxCell>
        <mxCell id="fNavXlTei2wndbR-Wmgy-2005" value="路由：0x0010" style="shape=partialRectangle;html=1;whiteSpace=wrap;connectable=0;strokeColor=inherit;overflow=hidden;fillColor=#FF6666;top=0;left=0;bottom=0;right=0;pointerEvents=1;fontSize=16;fontColor=#FFFFFF;" parent="fNavXlTei2wndbR-Wmgy-2004" vertex="1">
          <mxGeometry width="76" height="49" as="geometry">
            <mxRectangle width="76" height="49" as="alternateBounds" />
          </mxGeometry>
        </mxCell>
        <mxCell id="fNavXlTei2wndbR-Wmgy-2006" value="0X0011" style="shape=partialRectangle;whiteSpace=wrap;connectable=0;strokeColor=default;overflow=hidden;fillColor=#004C99;top=0;left=0;bottom=0;right=0;pointerEvents=1;fontSize=16;html=1;fontColor=#FFFFFF;strokeWidth=3;" parent="fNavXlTei2wndbR-Wmgy-2004" vertex="1">
          <mxGeometry x="76" width="76" height="49" as="geometry">
            <mxRectangle width="76" height="49" as="alternateBounds" />
          </mxGeometry>
        </mxCell>
        <mxCell id="fNavXlTei2wndbR-Wmgy-2007" value="0X0012" style="shape=partialRectangle;html=1;whiteSpace=wrap;connectable=0;strokeColor=default;overflow=hidden;fillColor=#004C99;top=0;left=0;bottom=0;right=0;pointerEvents=1;fontSize=16;fontColor=#FFFFFF;strokeWidth=3;" parent="fNavXlTei2wndbR-Wmgy-2004" vertex="1">
          <mxGeometry x="152" width="76" height="49" as="geometry">
            <mxRectangle width="76" height="49" as="alternateBounds" />
          </mxGeometry>
        </mxCell>
        <mxCell id="fNavXlTei2wndbR-Wmgy-2008" value="……" style="shape=partialRectangle;html=1;whiteSpace=wrap;connectable=0;strokeColor=default;overflow=hidden;fillColor=#004C99;top=0;left=0;bottom=0;right=0;pointerEvents=1;fontSize=16;fontColor=#FFFFFF;strokeWidth=3;" parent="fNavXlTei2wndbR-Wmgy-2004" vertex="1">
          <mxGeometry x="228" width="76" height="49" as="geometry">
            <mxRectangle width="76" height="49" as="alternateBounds" />
          </mxGeometry>
        </mxCell>
        <mxCell id="fNavXlTei2wndbR-Wmgy-2009" value="" style="shape=tableRow;horizontal=0;startSize=0;swimlaneHead=0;swimlaneBody=0;strokeColor=inherit;top=0;left=0;bottom=0;right=0;collapsible=0;dropTarget=0;fillColor=none;points=[[0,0.5],[1,0.5]];portConstraint=eastwest;fontSize=16;" parent="fNavXlTei2wndbR-Wmgy-1998" vertex="1">
          <mxGeometry y="97" width="304" height="48" as="geometry" />
        </mxCell>
        <mxCell id="fNavXlTei2wndbR-Wmgy-2010" value="路由：0x0013" style="shape=partialRectangle;html=1;whiteSpace=wrap;connectable=0;strokeColor=inherit;overflow=hidden;fillColor=#FF6666;top=0;left=0;bottom=0;right=0;pointerEvents=1;fontSize=16;fontColor=#FFFFFF;" parent="fNavXlTei2wndbR-Wmgy-2009" vertex="1">
          <mxGeometry width="76" height="48" as="geometry">
            <mxRectangle width="76" height="48" as="alternateBounds" />
          </mxGeometry>
        </mxCell>
        <mxCell id="fNavXlTei2wndbR-Wmgy-2011" value="0X0014" style="shape=partialRectangle;html=1;whiteSpace=wrap;connectable=0;strokeColor=default;overflow=hidden;fillColor=#004C99;top=0;left=0;bottom=0;right=0;pointerEvents=1;fontSize=16;fontColor=#FFFFFF;strokeWidth=3;" parent="fNavXlTei2wndbR-Wmgy-2009" vertex="1">
          <mxGeometry x="76" width="76" height="48" as="geometry">
            <mxRectangle width="76" height="48" as="alternateBounds" />
          </mxGeometry>
        </mxCell>
        <mxCell id="fNavXlTei2wndbR-Wmgy-2012" value="0X0015" style="shape=partialRectangle;html=1;whiteSpace=wrap;connectable=0;strokeColor=default;overflow=hidden;fillColor=#004C99;top=0;left=0;bottom=0;right=0;pointerEvents=1;fontSize=16;fontColor=#FFFFFF;strokeWidth=3;" parent="fNavXlTei2wndbR-Wmgy-2009" vertex="1">
          <mxGeometry x="152" width="76" height="48" as="geometry">
            <mxRectangle width="76" height="48" as="alternateBounds" />
          </mxGeometry>
        </mxCell>
        <mxCell id="fNavXlTei2wndbR-Wmgy-2013" value="……" style="shape=partialRectangle;html=1;whiteSpace=wrap;connectable=0;strokeColor=default;overflow=hidden;fillColor=#004C99;top=0;left=0;bottom=0;right=0;pointerEvents=1;fontSize=16;fontColor=#FFFFFF;strokeWidth=3;" parent="fNavXlTei2wndbR-Wmgy-2009" vertex="1">
          <mxGeometry x="228" width="76" height="48" as="geometry">
            <mxRectangle width="76" height="48" as="alternateBounds" />
          </mxGeometry>
        </mxCell>
        <mxCell id="fNavXlTei2wndbR-Wmgy-2014" value="" style="shape=table;startSize=0;container=1;collapsible=0;childLayout=tableLayout;fontSize=16;fontColor=#FFFFFF;fillColor=#004C99;" parent="fNavXlTei2wndbR-Wmgy-1996" vertex="1">
          <mxGeometry x="12" y="13" width="106.75" height="80" as="geometry" />
        </mxCell>
        <mxCell id="fNavXlTei2wndbR-Wmgy-2015" value="" style="shape=tableRow;horizontal=0;startSize=0;swimlaneHead=0;swimlaneBody=0;strokeColor=inherit;top=0;left=0;bottom=0;right=0;collapsible=0;dropTarget=0;fillColor=none;points=[[0,0.5],[1,0.5]];portConstraint=eastwest;fontSize=16;" parent="fNavXlTei2wndbR-Wmgy-2014" vertex="1">
          <mxGeometry width="106.75" height="40" as="geometry" />
        </mxCell>
        <mxCell id="fNavXlTei2wndbR-Wmgy-2016" value="0X0008" style="shape=partialRectangle;html=1;whiteSpace=wrap;connectable=0;strokeColor=inherit;overflow=hidden;fillColor=none;top=0;left=0;bottom=0;right=0;pointerEvents=1;fontSize=16;fontColor=#FFFFFF;" parent="fNavXlTei2wndbR-Wmgy-2015" vertex="1">
          <mxGeometry width="107" height="40" as="geometry">
            <mxRectangle width="107" height="40" as="alternateBounds" />
          </mxGeometry>
        </mxCell>
        <mxCell id="fNavXlTei2wndbR-Wmgy-2017" value="" style="shape=tableRow;horizontal=0;startSize=0;swimlaneHead=0;swimlaneBody=0;strokeColor=inherit;top=0;left=0;bottom=0;right=0;collapsible=0;dropTarget=0;fillColor=none;points=[[0,0.5],[1,0.5]];portConstraint=eastwest;fontSize=16;" parent="fNavXlTei2wndbR-Wmgy-2014" vertex="1">
          <mxGeometry y="40" width="106.75" height="40" as="geometry" />
        </mxCell>
        <mxCell id="fNavXlTei2wndbR-Wmgy-2018" value="0X0009" style="shape=partialRectangle;html=1;whiteSpace=wrap;connectable=0;strokeColor=inherit;overflow=hidden;fillColor=none;top=0;left=0;bottom=0;right=0;pointerEvents=1;fontSize=16;fontColor=#FFFFFF;" parent="fNavXlTei2wndbR-Wmgy-2017" vertex="1">
          <mxGeometry width="107" height="40" as="geometry">
            <mxRectangle width="107" height="40" as="alternateBounds" />
          </mxGeometry>
        </mxCell>
        <mxCell id="fNavXlTei2wndbR-Wmgy-2019" value="当前设备节点表" style="rounded=1;whiteSpace=wrap;html=1;fillColor=#666666;fontSize=16;" parent="fNavXlTei2wndbR-Wmgy-1996" vertex="1">
          <mxGeometry x="99" y="272" width="153" height="60" as="geometry" />
        </mxCell>
        <mxCell id="fNavXlTei2wndbR-Wmgy-2059" value="&lt;font style=&quot;font-size: 18px;&quot;&gt;类型：一级路由&lt;/font&gt;" style="ellipse;whiteSpace=wrap;html=1;fillColor=#FFFF99;" parent="fNavXlTei2wndbR-Wmgy-1996" vertex="1">
          <mxGeometry x="132" y="9" width="153" height="95" as="geometry" />
        </mxCell>
        <mxCell id="fNavXlTei2wndbR-Wmgy-2022" value="" style="group" parent="1" vertex="1" connectable="0">
          <mxGeometry x="413" y="238" width="313" height="180" as="geometry" />
        </mxCell>
        <mxCell id="fNavXlTei2wndbR-Wmgy-2023" value="" style="whiteSpace=wrap;html=1;fillColor=#666666;" parent="fNavXlTei2wndbR-Wmgy-2022" vertex="1">
          <mxGeometry width="313" height="180" as="geometry" />
        </mxCell>
        <mxCell id="fNavXlTei2wndbR-Wmgy-2040" value="" style="shape=table;startSize=0;container=1;collapsible=0;childLayout=tableLayout;fontSize=16;fontColor=#FFFFFF;fillColor=#004C99;" parent="fNavXlTei2wndbR-Wmgy-2022" vertex="1">
          <mxGeometry x="16.004878048780498" y="12.002622950819672" width="117.42073170731707" height="117.80852459016393" as="geometry" />
        </mxCell>
        <mxCell id="fNavXlTei2wndbR-Wmgy-2041" value="" style="shape=tableRow;horizontal=0;startSize=0;swimlaneHead=0;swimlaneBody=0;strokeColor=inherit;top=0;left=0;bottom=0;right=0;collapsible=0;dropTarget=0;fillColor=none;points=[[0,0.5],[1,0.5]];portConstraint=eastwest;fontSize=16;" parent="fNavXlTei2wndbR-Wmgy-2040" vertex="1">
          <mxGeometry width="117.42073170731707" height="56" as="geometry" />
        </mxCell>
        <mxCell id="fNavXlTei2wndbR-Wmgy-2042" value="0X0002" style="shape=partialRectangle;html=1;whiteSpace=wrap;connectable=0;strokeColor=inherit;overflow=hidden;fillColor=none;top=0;left=0;bottom=0;right=0;pointerEvents=1;fontSize=16;fontColor=#FFFFFF;" parent="fNavXlTei2wndbR-Wmgy-2041" vertex="1">
          <mxGeometry width="117" height="56" as="geometry">
            <mxRectangle width="117" height="56" as="alternateBounds" />
          </mxGeometry>
        </mxCell>
        <mxCell id="fNavXlTei2wndbR-Wmgy-2043" value="" style="shape=tableRow;horizontal=0;startSize=0;swimlaneHead=0;swimlaneBody=0;strokeColor=inherit;top=0;left=0;bottom=0;right=0;collapsible=0;dropTarget=0;fillColor=none;points=[[0,0.5],[1,0.5]];portConstraint=eastwest;fontSize=16;" parent="fNavXlTei2wndbR-Wmgy-2040" vertex="1">
          <mxGeometry y="56" width="117.42073170731707" height="62" as="geometry" />
        </mxCell>
        <mxCell id="fNavXlTei2wndbR-Wmgy-2044" value="0X0003" style="shape=partialRectangle;html=1;whiteSpace=wrap;connectable=0;strokeColor=inherit;overflow=hidden;fillColor=none;top=0;left=0;bottom=0;right=0;pointerEvents=1;fontSize=16;fontColor=#FFFFFF;" parent="fNavXlTei2wndbR-Wmgy-2043" vertex="1">
          <mxGeometry width="117" height="62" as="geometry">
            <mxRectangle width="117" height="62" as="alternateBounds" />
          </mxGeometry>
        </mxCell>
        <mxCell id="fNavXlTei2wndbR-Wmgy-2045" value="当前设备节点表" style="rounded=1;whiteSpace=wrap;html=1;fillColor=#666666;fontSize=16;" parent="fNavXlTei2wndbR-Wmgy-2022" vertex="1">
          <mxGeometry x="99" y="136" width="151" height="37.76" as="geometry" />
        </mxCell>
        <mxCell id="fNavXlTei2wndbR-Wmgy-2060" value="&lt;font style=&quot;font-size: 18px;&quot;&gt;类型：二级路由&lt;/font&gt;" style="ellipse;whiteSpace=wrap;html=1;fillColor=#FFFF99;" parent="fNavXlTei2wndbR-Wmgy-2022" vertex="1">
          <mxGeometry x="149.99999999999994" y="23.409999999999968" width="153" height="95" as="geometry" />
        </mxCell>
        <mxCell id="fNavXlTei2wndbR-Wmgy-2061" value="&lt;h1 style=&quot;&quot;&gt;服务器&lt;/h1&gt;&lt;h1 style=&quot;text-align: left;&quot;&gt;功能：&lt;/h1&gt;&lt;h1 style=&quot;text-align: justify;&quot;&gt;&lt;span style=&quot;white-space: pre;&quot;&gt;&#x9;&lt;/span&gt;记录当前连接的客户端和一级路由，以及一级路由所记录的客户端节点。&lt;/h1&gt;&lt;div&gt;&lt;br&gt;&lt;/div&gt;&lt;div style=&quot;text-align: justify; font-size: 28px;&quot;&gt;属性：&lt;/div&gt;&lt;div style=&quot;text-align: justify; font-size: 28px;&quot;&gt;&lt;span style=&quot;white-space: pre;&quot;&gt;&#x9;&lt;/span&gt;能主动对客户端和一级路由发起通信。&lt;br&gt;&lt;/div&gt;" style="rounded=1;whiteSpace=wrap;html=1;shadow=0;labelBackgroundColor=none;strokeColor=none;strokeWidth=3;fillColor=#383800;fontFamily=Helvetica;fontSize=14;fontColor=#FFFFFF;align=center;spacing=5;fontStyle=1;arcSize=7;perimeterSpacing=2;horizontal=1;" parent="1" vertex="1">
          <mxGeometry x="-1264" y="-473" width="525" height="375" as="geometry" />
        </mxCell>
        <mxCell id="fNavXlTei2wndbR-Wmgy-2062" value="&lt;h3 style=&quot;font-size: 28px;&quot;&gt;&lt;font style=&quot;font-size: 28px;&quot; color=&quot;#ffffff&quot;&gt;客户端&lt;/font&gt;&lt;/h3&gt;&lt;div style=&quot;text-align: justify; font-size: 28px;&quot;&gt;&lt;font style=&quot;font-size: 28px;&quot;&gt;&lt;font style=&quot;font-size: 28px;&quot; color=&quot;#ffffff&quot;&gt;功能：&lt;/font&gt;&lt;/font&gt;&lt;/div&gt;&lt;div style=&quot;text-align: justify; font-size: 28px;&quot;&gt;&lt;font style=&quot;font-size: 28px;&quot;&gt;&lt;font style=&quot;font-size: 28px;&quot; color=&quot;#ffffff&quot;&gt;&lt;span style=&quot;white-space: pre;&quot;&gt;&#x9;&lt;/span&gt;响应上级（服务器、一级路由、二级路由&lt;/font&gt;&lt;span style=&quot;color: rgb(255, 255, 255); background-color: initial;&quot;&gt;）。&lt;/span&gt;&lt;/font&gt;&lt;/div&gt;&lt;div style=&quot;text-align: justify; font-size: 28px;&quot;&gt;&lt;font style=&quot;font-size: 28px;&quot;&gt;&lt;span style=&quot;color: rgb(255, 255, 255); background-color: initial;&quot;&gt;&lt;br&gt;&lt;/span&gt;&lt;/font&gt;&lt;/div&gt;&lt;div style=&quot;text-align: justify; font-size: 28px;&quot;&gt;&lt;font style=&quot;font-size: 28px;&quot;&gt;&lt;span style=&quot;color: rgb(255, 255, 255); background-color: initial;&quot;&gt;属性：&lt;/span&gt;&lt;/font&gt;&lt;/div&gt;&lt;div style=&quot;text-align: justify; font-size: 28px;&quot;&gt;&lt;font style=&quot;font-size: 28px;&quot;&gt;&lt;span style=&quot;color: rgb(255, 255, 255); background-color: initial;&quot;&gt;&lt;span style=&quot;white-space: pre;&quot;&gt;&#x9;&lt;/span&gt;能跟服务器、一级路由、二级路由建立通信。可设置成只跟服务器或只跟一级路由或只跟二级路由连接。&lt;br&gt;&lt;/span&gt;&lt;/font&gt;&lt;/div&gt;&lt;div style=&quot;text-align: justify; font-size: 28px;&quot;&gt;&lt;font style=&quot;font-size: 28px;&quot;&gt;&lt;span style=&quot;color: rgb(255, 255, 255); background-color: initial;&quot;&gt;&lt;br&gt;&lt;/span&gt;&lt;/font&gt;&lt;/div&gt;" style="rounded=1;whiteSpace=wrap;html=1;shadow=0;labelBackgroundColor=none;strokeWidth=3;fontFamily=Helvetica;fontSize=14;align=center;spacing=5;fontStyle=0;arcSize=7;perimeterSpacing=2;fillColor=#004C99;strokeColor=#6c8ebf;" parent="1" vertex="1">
          <mxGeometry x="-687" y="-471" width="475" height="364" as="geometry" />
        </mxCell>
        <mxCell id="fNavXlTei2wndbR-Wmgy-2063" value="&lt;font style=&quot;font-size: 28px;&quot;&gt;一级路由&lt;br&gt;&lt;/font&gt;&lt;div style=&quot;text-align: justify;&quot;&gt;&lt;font style=&quot;font-size: 28px;&quot;&gt;功能：&lt;/font&gt;&lt;/div&gt;&lt;div style=&quot;text-align: justify;&quot;&gt;&lt;font style=&quot;font-size: 28px;&quot;&gt;&lt;span style=&quot;white-space: pre;&quot;&gt;&#x9;&lt;/span&gt;记录当前连接的客户端节点和二级路由，以及二级路由所记录的客户端节点。&lt;/font&gt;&lt;/div&gt;&lt;div style=&quot;text-align: justify;&quot;&gt;&lt;font style=&quot;font-size: 28px;&quot;&gt;&lt;br&gt;&lt;/font&gt;&lt;/div&gt;&lt;div style=&quot;text-align: justify;&quot;&gt;&lt;font style=&quot;font-size: 28px;&quot;&gt;属性：&lt;/font&gt;&lt;/div&gt;&lt;div style=&quot;text-align: justify;&quot;&gt;&lt;font style=&quot;font-size: 28px;&quot;&gt;&lt;span style=&quot;white-space: pre;&quot;&gt;&#x9;&lt;/span&gt;能跟服务器、客户端、二级路由建立通信，&lt;br&gt;&lt;/font&gt;&lt;/div&gt;" style="rounded=1;whiteSpace=wrap;html=1;shadow=0;labelBackgroundColor=none;strokeColor=none;strokeWidth=3;fillColor=#FF33FF;fontFamily=Helvetica;fontSize=16;fontColor=#FFFFFF;align=center;fontStyle=1;spacing=5;arcSize=7;perimeterSpacing=2;" parent="1" vertex="1">
          <mxGeometry x="-183" y="-460" width="460" height="342" as="geometry" />
        </mxCell>
        <mxCell id="fNavXlTei2wndbR-Wmgy-2064" value="&lt;font style=&quot;font-size: 28px;&quot;&gt;二级路由&lt;/font&gt;&lt;div style=&quot;text-align: justify;&quot;&gt;&lt;font style=&quot;font-size: 28px;&quot;&gt;功能：&lt;/font&gt;&lt;/div&gt;&lt;div style=&quot;text-align: justify;&quot;&gt;&lt;font style=&quot;font-size: 28px;&quot;&gt;&lt;span style=&quot;white-space: pre;&quot;&gt;&#x9;&lt;/span&gt;只记录当前连接的客户端节点。&lt;/font&gt;&lt;/div&gt;&lt;div style=&quot;text-align: justify;&quot;&gt;&lt;font style=&quot;font-size: 28px;&quot;&gt;&lt;br&gt;&lt;/font&gt;&lt;/div&gt;&lt;div style=&quot;text-align: justify;&quot;&gt;&lt;font style=&quot;font-size: 28px;&quot;&gt;属性：&lt;/font&gt;&lt;/div&gt;&lt;div style=&quot;text-align: justify;&quot;&gt;&lt;font style=&quot;font-size: 28px;&quot;&gt;&lt;span style=&quot;white-space: pre;&quot;&gt;&#x9;&lt;/span&gt;只能跟客户端和一级路由通信。&lt;br&gt;&lt;/font&gt;&lt;/div&gt;" style="rounded=1;whiteSpace=wrap;html=1;shadow=0;labelBackgroundColor=none;strokeColor=none;strokeWidth=3;fillColor=#FF6666;fontFamily=Helvetica;fontSize=16;fontColor=#FFFFFF;align=center;fontStyle=1;spacing=5;arcSize=7;perimeterSpacing=2;" parent="1" vertex="1">
          <mxGeometry x="363" y="-446" width="486" height="322" as="geometry" />
        </mxCell>
        <mxCell id="HncSGrJfqQpEUeqJAbim-1770" value="一级路由&lt;span style=&quot;background-color: initial;&quot;&gt;Router1&lt;/span&gt;&lt;div&gt;&lt;span style=&quot;background-color: initial;&quot;&gt;0x0007&lt;/span&gt;&lt;/div&gt;" style="rounded=1;whiteSpace=wrap;html=1;shadow=0;labelBackgroundColor=none;strokeColor=none;strokeWidth=3;fillColor=#FF33FF;fontFamily=Helvetica;fontSize=16;fontColor=#FFFFFF;align=center;fontStyle=1;spacing=5;arcSize=7;perimeterSpacing=2;" parent="1" vertex="1">
          <mxGeometry x="-1079" y="-745" width="197" height="70" as="geometry" />
        </mxCell>
        <mxCell id="HncSGrJfqQpEUeqJAbim-1771" value="" style="edgeStyle=none;rounded=1;jumpStyle=none;html=1;shadow=0;labelBackgroundColor=none;startArrow=classic;startFill=1;jettySize=auto;orthogonalLoop=1;strokeColor=#004C99;strokeWidth=3;fontFamily=Helvetica;fontSize=14;fontColor=#FFFFFF;spacing=5;fontStyle=1;fillColor=#b0e3e6;" parent="1" source="HncSGrJfqQpEUeqJAbim-1772" target="HncSGrJfqQpEUeqJAbim-1773" edge="1">
          <mxGeometry relative="1" as="geometry" />
        </mxCell>
        <mxCell id="HncSGrJfqQpEUeqJAbim-1772" value="&lt;h1&gt;服务器&lt;/h1&gt;&lt;h1&gt;0x0001&lt;/h1&gt;" style="rounded=1;whiteSpace=wrap;html=1;shadow=0;labelBackgroundColor=none;strokeColor=none;strokeWidth=3;fillColor=#383800;fontFamily=Helvetica;fontSize=14;fontColor=#FFFFFF;align=center;spacing=5;fontStyle=1;arcSize=7;perimeterSpacing=2;horizontal=1;" parent="1" vertex="1">
          <mxGeometry x="-1203" y="-615" width="150" height="94.5" as="geometry" />
        </mxCell>
        <mxCell id="HncSGrJfqQpEUeqJAbim-1773" value="&lt;h3&gt;&lt;font color=&quot;#ffffff&quot;&gt;服务器客户端&lt;/font&gt;&lt;/h3&gt;&lt;h3&gt;&lt;font color=&quot;#ffffff&quot;&gt;0X0002&lt;/font&gt;&lt;/h3&gt;" style="rounded=1;whiteSpace=wrap;html=1;shadow=0;labelBackgroundColor=none;strokeWidth=3;fontFamily=Helvetica;fontSize=14;align=center;spacing=5;fontStyle=0;arcSize=7;perimeterSpacing=2;fillColor=#004C99;strokeColor=#6c8ebf;" parent="1" vertex="1">
          <mxGeometry x="-1323" y="-747" width="150" height="69" as="geometry" />
        </mxCell>
        <mxCell id="HncSGrJfqQpEUeqJAbim-1774" value="" style="endArrow=classic;startArrow=classic;html=1;rounded=0;strokeColor=#FF33FF;strokeWidth=3;" parent="1" source="HncSGrJfqQpEUeqJAbim-1772" target="HncSGrJfqQpEUeqJAbim-1770" edge="1">
          <mxGeometry width="50" height="50" relative="1" as="geometry">
            <mxPoint x="-188" y="-514" as="sourcePoint" />
            <mxPoint x="-138" y="-564" as="targetPoint" />
            <Array as="points" />
          </mxGeometry>
        </mxCell>
        <mxCell id="HncSGrJfqQpEUeqJAbim-1775" value="一级路由&lt;span style=&quot;background-color: initial;&quot;&gt;Router1&lt;/span&gt;&lt;div&gt;&lt;span style=&quot;background-color: initial;&quot;&gt;0x0007&lt;/span&gt;&lt;/div&gt;" style="rounded=1;whiteSpace=wrap;html=1;shadow=0;labelBackgroundColor=none;strokeColor=none;strokeWidth=3;fillColor=#FF33FF;fontFamily=Helvetica;fontSize=16;fontColor=#FFFFFF;align=center;fontStyle=1;spacing=5;arcSize=7;perimeterSpacing=2;" parent="1" vertex="1">
          <mxGeometry x="-21.25" y="-580" width="197" height="70" as="geometry" />
        </mxCell>
        <mxCell id="HncSGrJfqQpEUeqJAbim-1777" value="&lt;h1&gt;服务器&lt;/h1&gt;&lt;h1&gt;0x0001&lt;/h1&gt;" style="rounded=1;whiteSpace=wrap;html=1;shadow=0;labelBackgroundColor=none;strokeColor=none;strokeWidth=3;fillColor=#383800;fontFamily=Helvetica;fontSize=14;fontColor=#FFFFFF;align=center;spacing=5;fontStyle=1;arcSize=7;perimeterSpacing=2;horizontal=1;" parent="1" vertex="1">
          <mxGeometry x="-202" y="-728.5" width="150" height="94.5" as="geometry" />
        </mxCell>
        <mxCell id="HncSGrJfqQpEUeqJAbim-1779" value="" style="endArrow=classic;startArrow=classic;html=1;rounded=0;strokeColor=#FF33FF;strokeWidth=3;" parent="1" source="HncSGrJfqQpEUeqJAbim-1777" target="HncSGrJfqQpEUeqJAbim-1775" edge="1">
          <mxGeometry width="50" height="50" relative="1" as="geometry">
            <mxPoint x="783.25" y="-486" as="sourcePoint" />
            <mxPoint x="833.25" y="-536" as="targetPoint" />
            <Array as="points" />
          </mxGeometry>
        </mxCell>
        <mxCell id="HncSGrJfqQpEUeqJAbim-1780" value="" style="edgeStyle=none;rounded=0;jumpStyle=none;html=1;shadow=0;labelBackgroundColor=none;startArrow=classic;startFill=1;endArrow=classic;endFill=1;jettySize=auto;orthogonalLoop=1;strokeColor=#004C99;strokeWidth=3;fontFamily=Helvetica;fontSize=14;fontColor=#FFFFFF;spacing=5;" parent="1" source="HncSGrJfqQpEUeqJAbim-1775" target="HncSGrJfqQpEUeqJAbim-1781" edge="1">
          <mxGeometry relative="1" as="geometry">
            <mxPoint x="56.093999999999596" y="-676.9780000000001" as="sourcePoint" />
            <mxPoint x="135.88906497622838" y="-933" as="targetPoint" />
          </mxGeometry>
        </mxCell>
        <mxCell id="HncSGrJfqQpEUeqJAbim-1781" value="&lt;h3&gt;&lt;font color=&quot;#ffffff&quot;&gt;一级客户端&lt;/font&gt;&lt;/h3&gt;&lt;h3&gt;&lt;font color=&quot;#ffffff&quot;&gt;0X0005&lt;/font&gt;&lt;/h3&gt;" style="rounded=1;whiteSpace=wrap;html=1;shadow=0;labelBackgroundColor=none;strokeWidth=3;fontFamily=Helvetica;fontSize=14;align=center;spacing=5;fontStyle=0;arcSize=7;perimeterSpacing=2;fillColor=#004C99;strokeColor=#6c8ebf;" parent="1" vertex="1">
          <mxGeometry x="7" y="-761" width="150" height="69" as="geometry" />
        </mxCell>
        <mxCell id="HncSGrJfqQpEUeqJAbim-1782" value="二级路由&lt;span style=&quot;background-color: initial;&quot;&gt;Router2&lt;/span&gt;&lt;div&gt;&lt;span style=&quot;background-color: initial;&quot;&gt;0x000D&lt;/span&gt;&lt;/div&gt;" style="rounded=1;whiteSpace=wrap;html=1;shadow=0;labelBackgroundColor=none;strokeColor=none;strokeWidth=3;fillColor=#FF6666;fontFamily=Helvetica;fontSize=16;fontColor=#FFFFFF;align=center;fontStyle=1;spacing=5;arcSize=7;perimeterSpacing=2;" parent="1" vertex="1">
          <mxGeometry x="190" y="-704" width="155" height="70" as="geometry" />
        </mxCell>
        <mxCell id="HncSGrJfqQpEUeqJAbim-1783" value="" style="endArrow=classic;startArrow=classic;html=1;rounded=0;strokeColor=#FF6666;strokeWidth=3;" parent="1" source="HncSGrJfqQpEUeqJAbim-1775" target="HncSGrJfqQpEUeqJAbim-1782" edge="1">
          <mxGeometry width="50" height="50" relative="1" as="geometry">
            <mxPoint x="179" y="-693" as="sourcePoint" />
            <mxPoint x="844" y="-940" as="targetPoint" />
            <Array as="points" />
          </mxGeometry>
        </mxCell>
        <mxCell id="HncSGrJfqQpEUeqJAbim-1784" value="一级路由&lt;span style=&quot;background-color: initial;&quot;&gt;Router1&lt;/span&gt;&lt;div&gt;&lt;span style=&quot;background-color: initial;&quot;&gt;0x0007&lt;/span&gt;&lt;/div&gt;" style="rounded=1;whiteSpace=wrap;html=1;shadow=0;labelBackgroundColor=none;strokeColor=none;strokeWidth=3;fillColor=#FF33FF;fontFamily=Helvetica;fontSize=16;fontColor=#FFFFFF;align=center;fontStyle=1;spacing=5;arcSize=7;perimeterSpacing=2;" parent="1" vertex="1">
          <mxGeometry x="464" y="-701" width="197" height="70" as="geometry" />
        </mxCell>
        <mxCell id="HncSGrJfqQpEUeqJAbim-1785" value="二级路由&lt;span style=&quot;background-color: initial;&quot;&gt;Router2&lt;/span&gt;&lt;div&gt;&lt;span style=&quot;background-color: initial;&quot;&gt;0x0010&lt;/span&gt;&lt;/div&gt;" style="rounded=1;whiteSpace=wrap;html=1;shadow=0;labelBackgroundColor=none;strokeColor=none;strokeWidth=3;fillColor=#FF6666;fontFamily=Helvetica;fontSize=16;fontColor=#FFFFFF;align=center;fontStyle=1;spacing=5;arcSize=7;perimeterSpacing=2;" parent="1" vertex="1">
          <mxGeometry x="553" y="-549" width="206" height="70" as="geometry" />
        </mxCell>
        <mxCell id="HncSGrJfqQpEUeqJAbim-1787" value="" style="edgeStyle=none;rounded=0;jumpStyle=none;html=1;shadow=0;labelBackgroundColor=none;startArrow=classic;startFill=1;endArrow=classic;endFill=1;jettySize=auto;orthogonalLoop=1;strokeColor=#004C99;strokeWidth=3;fontFamily=Helvetica;fontSize=14;fontColor=#FFFFFF;spacing=5;" parent="1" source="HncSGrJfqQpEUeqJAbim-1785" target="HncSGrJfqQpEUeqJAbim-1789" edge="1">
          <mxGeometry relative="1" as="geometry">
            <mxPoint x="968.25" y="-540.5" as="sourcePoint" />
            <mxPoint x="1012.1390649762284" y="-822.5" as="targetPoint" />
          </mxGeometry>
        </mxCell>
        <mxCell id="HncSGrJfqQpEUeqJAbim-1788" value="" style="endArrow=classic;startArrow=classic;html=1;rounded=0;strokeColor=#FF6666;strokeWidth=3;" parent="1" source="HncSGrJfqQpEUeqJAbim-1784" target="HncSGrJfqQpEUeqJAbim-1785" edge="1">
          <mxGeometry width="50" height="50" relative="1" as="geometry">
            <mxPoint x="169.25" y="-536" as="sourcePoint" />
            <mxPoint x="404.25" y="-536" as="targetPoint" />
            <Array as="points" />
          </mxGeometry>
        </mxCell>
        <mxCell id="HncSGrJfqQpEUeqJAbim-1789" value="&lt;h3&gt;&lt;font color=&quot;#ffffff&quot;&gt;二级客户端&lt;/font&gt;&lt;/h3&gt;&lt;h3&gt;&lt;font color=&quot;#ffffff&quot;&gt;0X0012&lt;/font&gt;&lt;/h3&gt;" style="rounded=1;whiteSpace=wrap;html=1;shadow=0;labelBackgroundColor=none;strokeWidth=3;fontFamily=Helvetica;fontSize=14;align=center;spacing=5;fontStyle=0;arcSize=7;perimeterSpacing=2;fillColor=#004C99;strokeColor=#6c8ebf;" parent="1" vertex="1">
          <mxGeometry x="739" y="-700" width="150" height="69" as="geometry" />
        </mxCell>
      </root>
    </mxGraphModel>
  </diagram>
</mxfile>
